<svg width="75" height="269" viewBox="0 0 75 269" fill="none" xmlns="http://www.w3.org/2000/svg">
<mask id="path-1-inside-1_220_92" fill="white">
<path d="M0 0H45.4862C61.7862 0 75 13.2138 75 29.5138V239.486C75 255.786 61.7862 269 45.4862 269H0V0Z"/>
</mask>
<path d="M0 0H45.4862C61.7862 0 75 13.2138 75 29.5138V239.486C75 255.786 61.7862 269 45.4862 269H0V0Z" fill="#8929D5"/>
<path d="M0 -3.93518H45.4862C63.9595 -3.93518 78.9352 11.0405 78.9352 29.5138H71.0648C71.0648 15.3871 59.6129 3.93518 45.4862 3.93518H0V-3.93518ZM78.9352 239.486C78.9352 257.96 63.9595 272.935 45.4862 272.935H0V265.065H45.4862C59.6129 265.065 71.0648 253.613 71.0648 239.486H78.9352ZM0 269V0V269ZM45.4862 -3.93518C63.9595 -3.93518 78.9352 11.0405 78.9352 29.5138V239.486C78.9352 257.96 63.9595 272.935 45.4862 272.935V265.065C59.6129 265.065 71.0648 253.613 71.0648 239.486V29.5138C71.0648 15.3871 59.6129 3.93518 45.4862 3.93518V-3.93518Z" fill="#391357" mask="url(#path-1-inside-1_220_92)"/>
<g clip-path="url(#clip0_220_92)">
<path d="M46.7466 227.19V225.105C46.7466 221.61 45.3583 218.258 42.8871 215.787C40.4159 213.316 37.0642 211.928 33.5694 211.928C30.0746 211.928 26.7229 213.316 24.2517 215.787C21.7805 218.258 20.3922 221.61 20.3922 225.105V227.19C18.8566 227.866 17.5999 229.049 16.8324 230.541C16.0649 232.033 15.8333 233.744 16.1764 235.386C16.5194 237.029 17.4163 238.504 18.7168 239.564C20.0173 240.624 21.6426 241.205 23.3205 241.21C24.0971 241.21 24.8419 240.902 25.3911 240.353C25.9402 239.803 26.2488 239.059 26.2488 238.282V229.497C26.2488 228.721 25.9402 227.976 25.3911 227.427C24.8419 226.878 24.0971 226.569 23.3205 226.569V225.105C23.3205 222.387 24.4003 219.78 26.3223 217.858C28.2444 215.936 30.8512 214.856 33.5694 214.856C36.2876 214.856 38.8944 215.936 40.8165 217.858C42.7385 219.78 43.8183 222.387 43.8183 225.105V226.569C43.0417 226.569 42.2969 226.878 41.7477 227.427C41.1986 227.976 40.89 228.721 40.89 229.497V238.282C40.89 239.059 41.1986 239.803 41.7477 240.353C42.2969 240.902 43.0417 241.21 43.8183 241.21C45.4962 241.205 47.1215 240.624 48.422 239.564C49.7225 238.504 50.6194 237.029 50.9624 235.386C51.3055 233.744 51.0739 232.033 50.3064 230.541C49.539 229.049 48.2822 227.866 46.7466 227.19ZM23.3205 238.282C22.1556 238.282 21.0383 237.819 20.2146 236.996C19.3909 236.172 18.9281 235.055 18.9281 233.89C18.9281 232.725 19.3909 231.608 20.2146 230.784C21.0383 229.96 22.1556 229.497 23.3205 229.497V238.282ZM43.8183 238.282V229.497C44.9832 229.497 46.1005 229.96 46.9242 230.784C47.7479 231.608 48.2107 232.725 48.2107 233.89C48.2107 235.055 47.7479 236.172 46.9242 236.996C46.1005 237.819 44.9832 238.282 43.8183 238.282Z" fill="white"/>
</g>
<g clip-path="url(#clip1_220_92)">
<path d="M60.2458 214.796C60.1792 214.755 60.105 214.726 60.0276 214.713C59.9502 214.701 59.8709 214.703 59.7944 214.721C59.7179 214.738 59.6456 214.771 59.5817 214.816C59.5178 214.862 59.4634 214.92 59.4218 214.986C59.3802 215.053 59.3521 215.127 59.3392 215.205C59.3262 215.282 59.3286 215.361 59.3463 215.438C59.364 215.514 59.3965 215.587 59.4421 215.65C59.4877 215.714 59.5455 215.769 59.6121 215.81C60.8073 216.559 61.6568 217.752 61.9741 219.126C62.2913 220.5 62.0506 221.944 61.3045 223.141C61.2205 223.276 61.1933 223.438 61.229 223.593C61.2647 223.747 61.3603 223.881 61.4948 223.965C61.6293 224.049 61.7916 224.076 61.9461 224.041C62.1006 224.005 62.2347 223.909 62.3187 223.775C63.2325 222.309 63.5274 220.54 63.1388 218.857C62.7502 217.174 61.7098 215.713 60.2458 214.796Z" fill="white"/>
<path d="M59.0731 216.907C59.0064 216.865 58.9322 216.837 58.8547 216.824C58.7771 216.811 58.6977 216.813 58.621 216.83C58.5444 216.848 58.4719 216.881 58.4078 216.926C58.3437 216.972 58.2892 217.029 58.2473 217.096C58.2055 217.163 58.1773 217.237 58.1642 217.314C58.151 217.392 58.1533 217.471 58.1709 217.548C58.1884 217.625 58.2209 217.697 58.2665 217.761C58.3121 217.825 58.3698 217.88 58.4364 217.922C59.0621 218.313 59.5068 218.937 59.6729 219.657C59.8389 220.376 59.7128 221.132 59.3221 221.758C59.2805 221.825 59.2525 221.899 59.2397 221.977C59.2268 222.054 59.2294 222.134 59.2472 222.21C59.265 222.287 59.2978 222.359 59.3436 222.423C59.3894 222.487 59.4473 222.541 59.5141 222.583C59.649 222.667 59.8117 222.694 59.9664 222.658C60.043 222.64 60.1154 222.607 60.1793 222.561C60.2433 222.516 60.2976 222.458 60.3392 222.391C60.8974 221.496 61.0777 220.415 60.8403 219.387C60.603 218.359 59.9674 217.467 59.0731 216.907Z" fill="white"/>
<path d="M55.6276 213.354C53.9338 214.095 52.59 215.459 51.8742 217.164L51.1371 217.334C50.3656 217.514 49.6966 217.992 49.2769 218.663C48.8572 219.335 48.7208 220.146 48.8978 220.918L49.4355 223.247C49.6149 224.018 50.0928 224.687 50.7646 225.107C51.4363 225.527 52.247 225.663 53.0191 225.486L53.7563 225.316C55.147 226.534 56.9528 227.171 58.8001 227.096C58.8364 227.094 58.8725 227.089 58.9078 227.081C59.0623 227.045 59.1962 226.95 59.2802 226.815C59.3642 226.681 59.3913 226.519 59.3557 226.364L56.4478 213.769C56.4283 213.683 56.3901 213.603 56.3361 213.534C56.2821 213.465 56.2134 213.408 56.1351 213.369C56.0568 213.329 55.9708 213.307 55.883 213.305C55.7953 213.302 55.7081 213.319 55.6276 213.354ZM58.0182 225.887C56.6394 225.774 55.3414 225.19 54.3422 224.233C54.2707 224.164 54.1831 224.114 54.0873 224.087C53.9915 224.061 53.8906 224.059 53.7937 224.081L52.7502 224.322C52.2869 224.429 51.8001 224.347 51.3969 224.095C50.9937 223.843 50.707 223.441 50.6001 222.978L50.0623 220.649C49.9554 220.186 50.0369 219.699 50.2888 219.296C50.5408 218.892 50.9426 218.606 51.4059 218.499L52.454 218.257C52.5508 218.234 52.6404 218.188 52.7149 218.123C52.7894 218.057 52.8463 217.974 52.8805 217.881C53.3576 216.583 54.2665 215.489 55.4546 214.783L58.0182 225.887Z" fill="white"/>
</g>
<g clip-path="url(#clip2_220_92)">
<mask id="mask0_220_92" style="mask-type:luminance" maskUnits="userSpaceOnUse" x="16" y="146" width="35" height="35">
<path d="M51 146H16V181H51V146Z" fill="white"/>
</mask>
<g mask="url(#mask0_220_92)">
<path d="M22.2843 154.179L20.0428 152.314C18.7427 153.873 17.725 155.647 17.0358 157.557L19.7789 158.548C20.3528 156.957 21.2007 155.478 22.2843 154.179Z" fill="white"/>
<path d="M18.917 163.5C18.9171 162.659 18.9893 161.818 19.1328 160.989L16.2585 160.49C15.9124 162.489 15.9124 164.532 16.2585 166.531L19.1314 166.029C18.9874 165.194 18.9157 164.348 18.917 163.5Z" fill="white"/>
<path d="M28.4063 149.83L27.3869 147.098C25.4844 147.807 23.7205 148.843 22.1748 150.16L24.0706 152.383C25.3564 151.286 26.8236 150.422 28.4063 149.83Z" fill="white"/>
<path d="M22.1895 176.854C23.7371 178.168 25.5025 179.202 27.4059 179.909L28.4267 177.174C26.8405 176.586 25.3697 175.724 24.0809 174.628L22.1895 176.854Z" fill="white"/>
<path d="M19.792 168.471L17.0503 169.464C17.7425 171.373 18.7621 173.146 20.0632 174.704L22.2959 172.835C21.2141 171.537 20.3667 170.06 19.792 168.471Z" fill="white"/>
<path d="M33.5004 146C32.4385 146.002 31.3788 146.099 30.3344 146.292L30.8594 149.162C31.7304 149 32.6145 148.918 33.5004 148.917V178.083C32.6146 178.084 31.7306 178.004 30.8594 177.844L30.3344 180.708C32.8577 181.17 35.4517 181.072 37.9329 180.42C40.4141 179.769 42.7219 178.58 44.6933 176.939C46.6645 175.297 48.2512 173.243 49.3411 170.921C50.4309 168.598 50.9974 166.065 51.0004 163.5C50.9953 158.86 49.1501 154.412 45.8693 151.131C42.5885 147.85 38.1401 146.005 33.5004 146Z" fill="white"/>
</g>
</g>
<path d="M47.1177 54H42.8019L39.275 44.6723H25.1675L21.8495 54H17.5105L30.2722 20.7267H34.3095L47.1177 54ZM37.9988 41.1687L32.7781 26.9916C32.608 26.5275 32.4378 25.785 32.2677 24.7641H32.1748C32.0202 25.7077 31.8423 26.4502 31.6412 26.9916L26.4669 41.1687H37.9988Z" fill="white"/>
<path d="M41.6004 112H38.7917L36.4964 105.93H27.3154L25.156 112H22.3322L30.6375 90.346H33.2649L41.6004 112ZM35.6659 103.649L32.2683 94.4231C32.1576 94.1211 32.0468 93.6379 31.9361 92.9734H31.8757C31.775 93.5875 31.6593 94.0707 31.5284 94.4231L28.161 103.649H35.6659Z" fill="white"/>
<path d="M55.5395 27.9728H50.1829V33.3161H48.4194V27.9728H43.0761V26.1961H48.4194V20.8527H50.1829V26.1961H55.5395V27.9728Z" fill="white"/>
<path d="M44.2237 95.5862H39.5123V94.4731H44.2237V95.5862Z" fill="white"/>
<defs>
<clipPath id="clip0_220_92">
<rect width="35.1391" height="35.1391" fill="white" transform="translate(16 209)"/>
</clipPath>
<clipPath id="clip1_220_92">
<rect width="14.3425" height="14.3425" fill="white" transform="translate(47.5535 215.095) rotate(-13)"/>
</clipPath>
<clipPath id="clip2_220_92">
<rect width="35" height="35" fill="white" transform="translate(16 146)"/>
</clipPath>
</defs>
</svg>
