<svg width="75" height="269" viewBox="0 0 75 269" fill="none" xmlns="http://www.w3.org/2000/svg">
<mask id="path-1-inside-1_220_68" fill="white">
<path d="M0 0H45.4862C61.7862 0 75 13.2138 75 29.5138V239.486C75 255.786 61.7862 269 45.4862 269H0V0Z"/>
</mask>
<path d="M0 0H45.4862C61.7862 0 75 13.2138 75 29.5138V239.486C75 255.786 61.7862 269 45.4862 269H0V0Z" fill="#8929D5"/>
<path d="M0 -3.93518H45.4862C63.9595 -3.93518 78.9352 11.0405 78.9352 29.5138H71.0648C71.0648 15.3871 59.6129 3.93518 45.4862 3.93518H0V-3.93518ZM78.9352 239.486C78.9352 257.96 63.9595 272.935 45.4862 272.935H0V265.065H45.4862C59.6129 265.065 71.0648 253.613 71.0648 239.486H78.9352ZM0 269V0V269ZM45.4862 -3.93518C63.9595 -3.93518 78.9352 11.0405 78.9352 29.5138V239.486C78.9352 257.96 63.9595 272.935 45.4862 272.935V265.065C59.6129 265.065 71.0648 253.613 71.0648 239.486V29.5138C71.0648 15.3871 59.6129 3.93518 45.4862 3.93518V-3.93518Z" fill="#391357" mask="url(#path-1-inside-1_220_68)"/>
</svg>
