<svg width="99" height="99" viewBox="0 0 99 99" fill="none" xmlns="http://www.w3.org/2000/svg">
<g clip-path="url(#clip0_9_3998)">
<path d="M49.4862 0.432617C39.7955 0.432617 30.3223 3.30626 22.2648 8.69015C14.2072 14.074 7.9271 21.7264 4.21861 30.6795C0.510121 39.6325 -0.460189 49.4843 1.43038 58.9888C3.32095 68.4934 7.98749 77.2238 14.8399 84.0762C21.6923 90.9286 30.4228 95.5952 39.9273 97.4857C49.4319 99.3763 59.2836 98.406 68.2367 94.6975C77.1898 90.989 84.8421 84.7089 90.226 76.6514C95.6099 68.5938 98.4835 59.1207 98.4835 49.4299C98.4695 36.4393 93.3027 23.9848 84.117 14.7991C74.9313 5.61338 62.4768 0.446667 49.4862 0.432617V0.432617ZM90.3173 49.4299C90.3221 57.4316 87.9611 65.2561 83.5312 71.9197L78.6641 67.0485C78.2825 66.6659 78.0681 66.1476 78.068 65.6072V61.6792C78.068 58.4305 76.7774 55.3149 74.4802 53.0177C72.183 50.7205 69.0674 49.4299 65.8186 49.4299H53.5693C52.4864 49.4299 51.4479 48.9997 50.6821 48.234C49.9164 47.4683 49.4862 46.4297 49.4862 45.3468V43.3053C49.4862 42.7638 49.7013 42.2445 50.0842 41.8617C50.467 41.4788 50.9863 41.2637 51.5278 41.2637C54.235 41.2637 56.8314 40.1882 58.7457 38.2739C60.6601 36.3596 61.7355 33.7632 61.7355 31.0559V26.9728C61.7355 26.4314 61.9506 25.9121 62.3335 25.5292C62.7164 25.1464 63.2356 24.9313 63.7771 24.9313H69.4077C72.1123 24.9236 74.7048 23.8496 76.6225 21.9424L78.1619 20.4031C82.013 24.1925 85.0712 28.7108 87.1581 33.6943C89.2451 38.6779 90.319 44.027 90.3173 49.4299ZM8.8552 53.362L21.7497 66.2564C22.8844 67.3984 24.2346 68.3038 25.7219 68.9199C27.2092 69.536 28.8041 69.8506 30.414 69.8455H41.32C42.4029 69.8455 43.4415 70.2756 44.2072 71.0414C44.9729 71.8071 45.4031 72.8457 45.4031 73.9286V90.0528C36.0127 89.0942 27.243 84.9169 20.5816 78.2294C13.9201 71.5419 9.77709 62.756 8.8552 53.362ZM53.5693 90.0528V73.9286C53.5693 70.6798 52.2788 67.5642 49.9816 65.267C47.6844 62.9698 44.5687 61.6792 41.32 61.6792H30.414C29.8772 61.6797 29.3455 61.5742 28.8495 61.3689C28.3534 61.1637 27.9027 60.8626 27.5232 60.4829L9.32068 42.2804C10.4892 35.638 13.2884 29.3896 17.4672 24.0958C21.646 18.802 27.0737 14.6284 33.2632 11.9495C39.4527 9.27058 46.2105 8.17017 52.9302 8.74697C59.6498 9.32378 66.1212 11.5598 71.7636 15.2543L70.849 16.1689C70.4647 16.5479 69.9475 16.7619 69.4077 16.7651H63.7771C61.0698 16.7651 58.4734 17.8405 56.5591 19.7548C54.6448 21.6692 53.5693 24.2656 53.5693 26.9728V31.0559C53.5693 31.5974 53.3542 32.1167 52.9714 32.4995C52.5885 32.8824 52.0692 33.0975 51.5278 33.0975C48.8205 33.0975 46.2241 34.1729 44.3098 36.0873C42.3955 38.0016 41.32 40.598 41.32 43.3053V45.3468C41.32 48.5955 42.6105 51.7112 44.9077 54.0084C47.2049 56.3056 50.3206 57.5961 53.5693 57.5961H65.8186C66.9016 57.5961 67.9401 58.0263 68.7058 58.792C69.4716 59.5578 69.9017 60.5963 69.9017 61.6792V65.6072C69.9094 68.3118 70.9834 70.9043 72.8906 72.822L78.3497 78.2812C71.7002 84.9537 62.9426 89.1139 53.5693 90.0528Z" fill="#8929D5"/>
</g>
<defs>
<clipPath id="clip0_9_3998">
<rect width="97.9946" height="97.9946" fill="white" transform="translate(0.488892 0.432617)"/>
</clipPath>
</defs>
</svg>
