<svg width="99" height="99" viewBox="0 0 99 99" fill="none" xmlns="http://www.w3.org/2000/svg">
<g clip-path="url(#clip0_9_4023)">
<path d="M49.3867 49.4299C52.6169 49.4299 55.7746 48.472 58.4605 46.6774C61.1464 44.8828 63.2397 42.332 64.4759 39.3476C65.7121 36.3633 66.0355 33.0794 65.4053 29.9112C64.7751 26.743 63.2196 23.8328 60.9355 21.5487C58.6513 19.2646 55.7412 17.7091 52.573 17.0789C49.4048 16.4487 46.1209 16.7721 43.1365 18.0083C40.1522 19.2444 37.6014 21.3378 35.8068 24.0237C34.0121 26.7095 33.0543 29.8672 33.0543 33.0975C33.0543 37.4291 34.775 41.5833 37.8379 44.6463C40.9008 47.7092 45.0551 49.4299 49.3867 49.4299ZM49.3867 24.9313C51.0018 24.9313 52.5807 25.4102 53.9236 26.3075C55.2665 27.2048 56.3132 28.4802 56.9313 29.9724C57.5494 31.4646 57.7111 33.1065 57.396 34.6906C57.0809 36.2747 56.3031 37.7298 55.1611 38.8719C54.019 40.0139 52.5639 40.7917 50.9798 41.1068C49.3957 41.4219 47.7538 41.2602 46.2616 40.6421C44.7694 40.024 43.494 38.9773 42.5967 37.6344C41.6994 36.2915 41.2205 34.7126 41.2205 33.0975C41.2205 30.9317 42.0808 28.8546 43.6123 27.3231C45.1438 25.7916 47.2209 24.9313 49.3867 24.9313ZM84.7464 37.8216L81.8107 36.8458C82.3389 32.2724 81.8945 27.639 80.5065 23.2494C79.1185 18.8598 76.8183 14.8132 73.7567 11.3749C70.6951 7.93663 66.9413 5.18437 62.7414 3.29861C58.5416 1.41284 53.9905 0.436159 49.3867 0.432617C44.7228 0.434418 40.1134 1.43581 35.8692 3.36933C31.625 5.30285 27.8445 8.12358 24.7824 11.6415C21.7203 15.1594 19.4477 19.2927 18.1179 23.763C16.788 28.2332 16.4317 32.9366 17.073 37.5562C13.1656 38.2848 9.55239 40.1283 6.66921 42.8643C4.67328 44.7619 3.08656 47.0477 2.00662 49.5811C0.926673 52.1146 0.376317 54.8421 0.389388 57.5961V74.2348C0.397969 78.65 1.83396 82.944 4.48307 86.4762C7.13219 90.0083 10.8524 92.5892 15.0886 93.8337L26.8071 97.5085C28.7754 98.1211 30.8254 98.4309 32.8868 98.4272C34.7569 98.4248 36.618 98.1693 38.4195 97.6677L62.0198 90.6856C64.1223 90.1118 66.3401 90.1118 68.4426 90.6856L78.1889 93.9521C80.591 94.5368 83.0945 94.5685 85.5106 94.045C87.9268 93.5214 90.1925 92.4561 92.137 90.9295C94.0816 89.4029 95.6542 87.4547 96.7363 85.2319C97.8184 83.0091 98.3818 80.5696 98.384 78.0974V57.0735C98.3747 52.8491 97.0592 48.731 94.6176 45.2837C92.1761 41.8363 88.7282 39.2285 84.7464 37.8176V37.8216ZM32.0661 15.7933C34.3374 13.5128 37.0366 11.7033 40.0089 10.4686C42.9813 9.23392 46.1681 8.59834 49.3867 8.59834C52.6052 8.59834 55.7921 9.23392 58.7644 10.4686C61.7367 11.7033 64.436 13.5128 66.7072 15.7933C71.2891 20.4037 73.8646 26.6373 73.873 33.1372C73.8814 39.6372 71.3221 45.8774 66.7522 50.4997L52.2449 64.6068C51.4877 65.3492 50.4696 65.7651 49.4091 65.7651C48.3487 65.7651 47.3306 65.3492 46.5734 64.6068L32.0661 50.5609C27.4746 45.9404 24.8975 39.691 24.8975 33.1771C24.8975 26.6632 27.4746 20.4138 32.0661 15.7933ZM90.2178 78.0974C90.2203 79.3341 89.9406 80.5551 89.4 81.6673C88.8594 82.7796 88.0722 83.7539 87.0983 84.5161C86.178 85.256 85.106 85.7841 83.9586 86.0628C82.8111 86.3416 81.6163 86.3641 80.4591 86.1289L70.8842 82.9114C67.2625 81.8709 63.4242 81.8483 59.7904 82.8461L36.1737 89.82C33.9047 90.4459 31.5033 90.4048 29.257 89.7016L17.4404 86.0268C14.883 85.2873 12.6345 83.7381 11.0324 81.6118C9.43037 79.4856 8.56127 76.897 8.5556 74.2348V57.5961C8.54643 55.9457 8.87494 54.3108 9.52094 52.792C10.1669 51.2732 11.1168 49.9025 12.3121 48.7644C14.1832 46.9811 16.5667 45.83 19.1268 45.4734C20.7727 49.5531 23.2237 53.2595 26.3335 56.3712L40.8979 70.4702C43.1743 72.6992 46.2334 73.9475 49.4194 73.9475C52.6053 73.9475 55.6644 72.6992 57.9408 70.4702L72.4889 56.3304C75.7462 53.0599 78.2697 49.1334 79.8916 44.8119L82.0842 45.5387C84.4621 46.3908 86.5192 47.9557 87.9748 50.0201C89.4305 52.0844 90.2137 54.5476 90.2178 57.0735V78.0974Z" fill="#8929D5"/>
</g>
<defs>
<clipPath id="clip0_9_4023">
<rect width="97.9946" height="97.9946" fill="white" transform="translate(0.394043 0.432617)"/>
</clipPath>
</defs>
</svg>
