<svg width="101" height="100" viewBox="0 0 101 100" fill="none" xmlns="http://www.w3.org/2000/svg">
<g clip-path="url(#clip0_9_4015)">
<path d="M46.2522 50.3166C47.3499 50.3166 48.4028 50.7527 49.179 51.5289C49.9553 52.3052 50.3914 53.358 50.3914 54.4558C50.3914 55.5536 49.9553 56.6064 49.179 57.3827C48.4028 58.1589 47.3499 58.595 46.2522 58.595H33.8345C32.7367 58.595 31.6839 58.1589 30.9076 57.3827C30.1314 56.6064 29.6953 55.5536 29.6953 54.4558C29.6953 53.358 30.1314 52.3052 30.9076 51.5289C31.6839 50.7527 32.7367 50.3166 33.8345 50.3166H46.2522ZM71.0874 37.8989C71.0874 36.8011 70.6514 35.7483 69.8751 34.9721C69.0988 34.1958 68.046 33.7597 66.9482 33.7597H33.8345C32.7367 33.7597 31.6839 34.1958 30.9076 34.9721C30.1314 35.7483 29.6953 36.8011 29.6953 37.8989C29.6953 38.9967 30.1314 40.0495 30.9076 40.8258C31.6839 41.6021 32.7367 42.0382 33.8345 42.0382H66.9482C68.046 42.0382 69.0988 41.6021 69.8751 40.8258C70.6514 40.0495 71.0874 38.9967 71.0874 37.8989ZM33.8345 25.4813H66.9482C68.046 25.4813 69.0988 25.0452 69.8751 24.2689C70.6514 23.4927 71.0874 22.4399 71.0874 21.3421C71.0874 20.2443 70.6514 19.1915 69.8751 18.4152C69.0988 17.639 68.046 17.2029 66.9482 17.2029H33.8345C32.7367 17.2029 31.6839 17.639 30.9076 18.4152C30.1314 19.1915 29.6953 20.2443 29.6953 21.3421C29.6953 22.4399 30.1314 23.4927 30.9076 24.2689C31.6839 25.0452 32.7367 25.4813 33.8345 25.4813ZM83.5051 81.1289V96.9945C83.5054 97.585 83.3305 98.1623 83.0026 98.6533C82.6747 99.1443 82.2085 99.5271 81.663 99.7531C81.1175 99.9791 80.5172 100.038 79.9381 99.9229C79.359 99.8077 78.8271 99.5232 78.4097 99.1055L75.2267 95.9266L72.0436 99.1055C71.6262 99.5232 71.0943 99.8077 70.5152 99.9229C69.9361 100.038 69.3358 99.9791 68.7903 99.7531C68.2448 99.5271 67.7786 99.1443 67.4507 98.6533C67.1228 98.1623 66.9479 97.585 66.9482 96.9945V81.1289C63.7914 79.3152 61.323 76.5085 59.9274 73.1459C58.5317 69.7832 58.2872 66.0535 59.2319 62.5375C60.1765 59.0214 62.2574 55.9165 65.1503 53.7061C68.0433 51.4957 71.586 50.304 75.2267 50.3166C76.6259 50.3341 78.0171 50.5316 79.3659 50.9044V21.3421C79.3659 18.0487 78.0576 14.8902 75.7288 12.5615C73.4001 10.2327 70.2416 8.92443 66.9482 8.92443H33.8345C30.5411 8.92443 27.3827 10.2327 25.0539 12.5615C22.7251 14.8902 21.4169 18.0487 21.4169 21.3421V71.0127C21.4169 74.306 22.7251 77.4645 25.0539 79.7933C27.3827 82.122 30.5411 83.4303 33.8345 83.4303H54.5306C55.6284 83.4303 56.6812 83.8664 57.4575 84.6426C58.2337 85.4189 58.6698 86.4717 58.6698 87.5695C58.6698 88.6673 58.2337 89.7201 57.4575 90.4964C56.6812 91.2726 55.6284 91.7087 54.5306 91.7087H33.8345C28.3476 91.7022 23.0873 89.5196 19.2074 85.6397C15.3276 81.7599 13.145 76.4996 13.1384 71.0127V21.3421C13.145 15.8552 15.3276 10.5948 19.2074 6.715C23.0873 2.83515 28.3476 0.652569 33.8345 0.645996L66.9482 0.645996C72.4352 0.652569 77.6955 2.83515 81.5753 6.715C85.4552 10.5948 87.6377 15.8552 87.6443 21.3421V56.037C89.2657 57.8578 90.4594 60.0182 91.1379 62.36C91.8164 64.7018 91.9626 67.1656 91.5658 69.5712C91.1689 71.9768 90.2391 74.2632 88.8444 76.263C87.4497 78.2628 85.6254 79.9253 83.5051 81.1289ZM83.5051 66.8734C83.5051 65.2361 83.0196 63.6356 82.1099 62.2742C81.2003 60.9128 79.9074 59.8517 78.3947 59.2252C76.882 58.5986 75.2175 58.4347 73.6116 58.7541C72.0058 59.0735 70.5307 59.8619 69.3729 61.0197C68.2152 62.1775 67.4267 63.6525 67.1073 65.2584C66.7879 66.8643 66.9518 68.5288 67.5784 70.0415C68.205 71.5542 69.266 72.8471 70.6274 73.7567C71.9888 74.6664 73.5893 75.1519 75.2267 75.1519C77.4222 75.1519 79.5279 74.2797 81.0804 72.7272C82.6329 71.1747 83.5051 69.069 83.5051 66.8734Z" fill="#8929D5"/>
</g>
<defs>
<clipPath id="clip0_9_4015">
<rect width="99.3412" height="99.3412" fill="white" transform="translate(0.720703 0.645996)"/>
</clipPath>
</defs>
</svg>
