<svg width="100" height="100" viewBox="0 0 100 100" fill="none" xmlns="http://www.w3.org/2000/svg">
<g clip-path="url(#clip0_9_4010)">
<path d="M49.8128 99.9872C39.9889 99.9872 30.3856 97.0741 22.2173 91.6162C14.049 86.1583 7.68263 78.4008 3.92318 69.3247C0.163733 60.2486 -0.81991 50.2615 1.09664 40.6264C3.01319 30.9912 7.74386 22.1408 14.6904 15.1942C21.637 8.24764 30.4874 3.51698 40.1226 1.60042C49.7577 -0.316126 59.7448 0.667518 68.8209 4.42697C77.897 8.18642 85.6545 14.5528 91.1124 22.7211C96.5703 30.8894 99.4834 40.4927 99.4834 50.3166C99.4692 63.4857 94.2315 76.1113 84.9195 85.4233C75.6075 94.7352 62.9819 99.9729 49.8128 99.9872ZM49.8128 8.92445C41.6262 8.92445 33.6235 11.3521 26.8166 15.9003C20.0097 20.4485 14.7043 26.9131 11.5715 34.4765C8.43858 42.0399 7.61888 50.3625 9.216 58.3918C10.8131 66.4211 14.7553 73.7965 20.5441 79.5853C26.3329 85.3741 33.7083 89.3163 41.7376 90.9134C49.7669 92.5106 58.0895 91.6908 65.6529 88.558C73.2163 85.4251 79.6809 80.1198 84.2291 73.3129C88.7774 66.506 91.205 58.5032 91.205 50.3166C91.1929 39.3424 86.8281 28.8212 79.0682 21.0612C71.3083 13.3013 60.787 8.9365 49.8128 8.92445ZM73.2656 65.8221C74.0857 65.0921 74.5821 64.0662 74.6458 62.9701C74.7094 61.874 74.3351 60.7976 73.605 59.9775C72.875 59.1575 71.8491 58.661 70.753 58.5974C69.657 58.5337 68.5805 58.9081 67.7605 59.6381C62.7004 63.8985 56.4129 66.4332 49.8128 66.8735C43.2166 66.4336 36.9325 63.9019 31.8735 59.6464C31.0545 58.9153 29.9787 58.5394 28.8826 58.6015C27.7865 58.6636 26.76 59.1586 26.0289 59.9775C25.2978 60.7965 24.9219 61.8723 24.984 62.9684C25.0461 64.0645 25.5411 65.091 26.36 65.8221C32.9325 71.4371 41.1793 74.7177 49.8128 75.1519C58.4463 74.7177 66.6931 71.4371 73.2656 65.8221ZM24.9775 42.0382C24.9775 46.1774 28.6821 46.1774 33.256 46.1774C37.8298 46.1774 41.5344 46.1774 41.5344 42.0382C41.5344 39.8426 40.6622 37.7369 39.1097 36.1844C37.5572 34.6319 35.4515 33.7597 33.256 33.7597C31.0604 33.7597 28.9547 34.6319 27.4022 36.1844C25.8497 37.7369 24.9775 39.8426 24.9775 42.0382ZM58.0913 42.0382C58.0913 46.1774 61.7958 46.1774 66.3697 46.1774C70.9435 46.1774 74.6481 46.1774 74.6481 42.0382C74.6481 39.8426 73.7759 37.7369 72.2234 36.1844C70.6709 34.6319 68.5653 33.7597 66.3697 33.7597C64.1741 33.7597 62.0685 34.6319 60.5159 36.1844C58.9634 37.7369 58.0913 39.8426 58.0913 42.0382Z" fill="#8929D5"/>
</g>
<defs>
<clipPath id="clip0_9_4010">
<rect width="99.3412" height="99.3412" fill="white" transform="translate(0.142212 0.645996)"/>
</clipPath>
</defs>
</svg>
