<svg width="41" height="32" viewBox="0 0 41 32" fill="none" xmlns="http://www.w3.org/2000/svg">
<path d="M34.7302 2.85527C32.142 1.66771 29.3666 0.792768 26.4647 0.291653C26.4119 0.281982 26.3591 0.306151 26.3319 0.35449C25.9749 0.989341 25.5795 1.81756 25.3027 2.46853C22.1815 2.00126 19.0764 2.00126 16.0192 2.46853C15.7423 1.80309 15.3326 0.989341 14.974 0.35449C14.9468 0.307764 14.894 0.283594 14.8412 0.291653C11.9409 0.791167 9.1655 1.66611 6.57574 2.85527C6.55332 2.86493 6.5341 2.88106 6.52135 2.902C1.25697 10.7669 -0.185161 18.4384 0.522301 26.0149C0.525503 26.0519 0.54631 26.0874 0.575121 26.1099C4.04841 28.6606 7.41288 30.2091 10.7149 31.2355C10.7677 31.2516 10.8237 31.2323 10.8573 31.1888C11.6384 30.1221 12.3347 28.9974 12.9317 27.8147C12.9669 27.7454 12.9333 27.6632 12.8613 27.6358C11.7569 27.2169 10.7053 26.7061 9.69368 26.126C9.61367 26.0793 9.60726 25.9649 9.68087 25.9101C9.89374 25.7506 10.1067 25.5846 10.3099 25.417C10.3467 25.3864 10.398 25.38 10.4412 25.3993C17.0868 28.4334 24.2815 28.4334 30.8487 25.3993C30.8919 25.3783 30.9432 25.3848 30.9816 25.4154C31.1849 25.583 31.3978 25.7506 31.6122 25.9101C31.6858 25.9649 31.681 26.0793 31.601 26.126C30.5894 26.7174 29.5378 27.2169 28.4318 27.6342C28.3598 27.6616 28.3278 27.7454 28.363 27.8147C28.9728 28.9958 29.6691 30.1205 30.4358 31.1872C30.4678 31.2323 30.5254 31.2516 30.5782 31.2355C33.8962 30.2091 37.2607 28.6606 40.734 26.1099C40.7644 26.0874 40.7836 26.0535 40.7868 26.0165C41.6335 17.2573 39.3687 9.64862 34.783 2.9036C34.7718 2.88106 34.7526 2.86493 34.7302 2.85527ZM13.9241 21.4016C11.9233 21.4016 10.2747 19.5647 10.2747 17.3088C10.2747 15.053 11.8913 13.2161 13.9241 13.2161C15.9728 13.2161 17.6054 15.0691 17.5734 17.3088C17.5734 19.5647 15.9568 21.4016 13.9241 21.4016ZM27.4171 21.4016C25.4163 21.4016 23.7677 19.5647 23.7677 17.3088C23.7677 15.053 25.3843 13.2161 27.4171 13.2161C29.4658 13.2161 31.0984 15.0691 31.0664 17.3088C31.0664 19.5647 29.4658 21.4016 27.4171 21.4016Z" fill="white"/>
</svg>
