<svg width="348" height="348" viewBox="0 0 348 348" fill="none" xmlns="http://www.w3.org/2000/svg">
<circle cx="173.747" cy="174.275" r="173.572" fill="url(#paint0_linear_139_97)"/>
<path d="M88.7922 240.376C77.6681 240.376 69 237.414 62.7878 231.491C56.5757 225.496 53.4696 217.911 53.4696 208.737C53.4696 202.958 54.5892 198.191 56.8285 194.435C59.0678 190.606 61.921 187.536 65.3883 185.225C68.9278 182.913 72.6117 181.071 76.4401 179.699C81.1354 178.038 85.8667 176.737 90.6342 175.798C95.4739 174.859 99.9163 173.848 103.961 172.764C108.079 171.609 111.365 169.983 113.821 167.889C116.35 165.722 117.614 162.652 117.614 158.679V155.645C117.614 147.916 115.302 141.74 110.679 137.117C106.128 132.422 100.061 130.074 92.4762 130.074C84.8916 130.074 78.86 132.422 74.3815 137.117C69.9752 141.74 67.772 147.916 67.772 155.645V157.812H55.8533V155.645C55.8533 144.449 59.2483 135.419 66.0384 128.557C72.8284 121.622 81.641 118.155 92.4762 118.155C99.6996 118.155 106.092 119.744 111.654 122.923C117.216 126.029 121.587 130.399 124.765 136.033C127.943 141.668 129.532 148.205 129.532 155.645V237.775H117.614V222.389L119.564 224.99C116.675 229.83 112.63 233.622 107.429 236.367C102.3 239.039 96.0879 240.376 88.7922 240.376ZM90.2008 228.674C99.0134 228.674 105.767 226.218 110.463 221.306C115.23 216.394 117.614 209.532 117.614 200.719V178.615C112.413 181.721 106.634 183.78 100.277 184.791C93.9931 185.73 88.0699 187.067 82.5078 188.8C77.6681 190.317 73.5869 192.557 70.2641 195.518C67.0135 198.408 65.3883 202.669 65.3883 208.304C65.3883 214.371 67.5553 219.283 71.8894 223.04C76.2234 226.796 82.3272 228.674 90.2008 228.674ZM177.854 240.376C171.642 240.376 166.26 239.112 161.709 236.584C157.159 234.055 153.511 230.552 150.766 226.073L152.716 223.473V237.775H140.798V75.248H152.716V135.058L150.766 132.458C153.511 127.979 157.159 124.476 161.709 121.948C166.26 119.419 171.642 118.155 177.854 118.155C184.933 118.155 191.181 119.744 196.599 122.923C202.016 126.029 206.278 130.399 209.384 136.033C212.49 141.668 214.043 148.205 214.043 155.645V202.669C214.043 210.182 212.49 216.791 209.384 222.498C206.278 228.132 202.016 232.538 196.599 235.717C191.181 238.823 184.933 240.376 177.854 240.376ZM177.095 228.457C184.897 228.457 191.001 226.073 195.407 221.306C199.885 216.538 202.125 210.326 202.125 202.669V155.645C202.125 147.916 199.885 141.74 195.407 137.117C191.001 132.422 184.933 130.074 177.204 130.074C169.475 130.074 163.443 132.422 159.109 137.117C154.847 141.74 152.716 147.916 152.716 155.645V202.886C152.716 210.543 154.847 216.719 159.109 221.414C163.443 226.11 169.439 228.457 177.095 228.457ZM257.309 240.376C250.086 240.376 243.693 238.823 238.131 235.717C232.569 232.538 228.199 228.132 225.021 222.498C221.842 216.791 220.253 210.182 220.253 202.669V155.645C220.253 148.205 221.842 141.668 225.021 136.033C228.199 130.399 232.569 126.029 238.131 122.923C243.693 119.744 250.086 118.155 257.309 118.155C268.145 118.155 276.957 121.622 283.747 128.557C290.537 135.419 293.932 144.449 293.932 155.645V157.812H282.014V155.645C282.014 147.916 279.774 141.74 275.296 137.117C270.89 132.422 264.894 130.074 257.309 130.074C249.725 130.074 243.621 132.422 238.998 137.117C234.447 141.74 232.172 147.916 232.172 155.645V202.669C232.172 210.326 234.447 216.538 238.998 221.306C243.621 226.073 249.725 228.457 257.309 228.457C264.894 228.457 270.89 226.073 275.296 221.306C279.774 216.538 282.014 210.326 282.014 202.669V200.502H293.932V202.669C293.932 213.938 290.537 223.04 283.747 229.974C276.957 236.909 268.145 240.376 257.309 240.376Z" fill="white"/>
<defs>
<linearGradient id="paint0_linear_139_97" x1="173.747" y1="0.703491" x2="173.747" y2="347.847" gradientUnits="userSpaceOnUse">
<stop stop-color="#8929D5"/>
<stop offset="1" stop-color="#3E3AFF"/>
</linearGradient>
</defs>
</svg>
