<svg width="47" height="35" viewBox="0 0 47 35" fill="none" xmlns="http://www.w3.org/2000/svg">
<path d="M48.4623 7.66084C48.4623 7.66084 47.9936 4.35146 46.5498 2.89834C44.7217 0.98584 42.6779 0.976465 41.7404 0.863965C35.0279 0.376465 24.9498 0.376465 24.9498 0.376465H24.9311C24.9311 0.376465 14.8529 0.376465 8.14043 0.863965C7.20293 0.976465 5.15918 0.98584 3.33105 2.89834C1.8873 4.35146 1.42793 7.66084 1.42793 7.66084C1.42793 7.66084 0.94043 11.5515 0.94043 15.4327V19.0702C0.94043 22.9515 1.41855 26.8421 1.41855 26.8421C1.41855 26.8421 1.8873 30.1515 3.32168 31.6046C5.1498 33.5171 7.54981 33.4515 8.61856 33.6577C12.4623 34.0233 24.9404 34.1358 24.9404 34.1358C24.9404 34.1358 35.0279 34.1171 41.7404 33.639C42.6779 33.5265 44.7217 33.5171 46.5498 31.6046C47.9936 30.1515 48.4623 26.8421 48.4623 26.8421C48.4623 26.8421 48.9404 22.9608 48.9404 19.0702V15.4327C48.9404 11.5515 48.4623 7.66084 48.4623 7.66084ZM19.9811 23.4858V9.99521L32.9467 16.764L19.9811 23.4858Z" fill="white"/>
</svg>
