<svg width="49" height="49" viewBox="0 0 49 49" fill="none" xmlns="http://www.w3.org/2000/svg">
<g clip-path="url(#clip0_161_138)">
<path d="M24.4365 4.57773C30.849 4.57773 31.6084 4.60586 34.1303 4.71836C36.474 4.82148 37.7397 5.21523 38.5834 5.54336C39.699 5.97461 40.5053 6.49961 41.3396 7.33398C42.1834 8.17773 42.699 8.97461 43.1303 10.0902C43.4584 10.934 43.8521 12.209 43.9553 14.5434C44.0678 17.0746 44.0959 17.834 44.0959 24.2371C44.0959 30.6496 44.0678 31.409 43.9553 33.9309C43.8521 36.2746 43.4584 37.5402 43.1303 38.384C42.699 39.4996 42.174 40.3059 41.3396 41.1402C40.4959 41.984 39.699 42.4996 38.5834 42.9309C37.7397 43.259 36.4646 43.6527 34.1303 43.7559C31.599 43.8684 30.8397 43.8965 24.4365 43.8965C18.024 43.8965 17.2647 43.8684 14.7428 43.7559C12.399 43.6527 11.1334 43.259 10.2896 42.9309C9.17402 42.4996 8.36777 41.9746 7.5334 41.1402C6.68965 40.2965 6.17402 39.4996 5.74277 38.384C5.41465 37.5402 5.0209 36.2652 4.91777 33.9309C4.80527 31.3996 4.77715 30.6402 4.77715 24.2371C4.77715 17.8246 4.80527 17.0652 4.91777 14.5434C5.0209 12.1996 5.41465 10.934 5.74277 10.0902C6.17402 8.97461 6.69902 8.16836 7.5334 7.33398C8.37715 6.49023 9.17402 5.97461 10.2896 5.54336C11.1334 5.21523 12.4084 4.82148 14.7428 4.71836C17.2647 4.60586 18.024 4.57773 24.4365 4.57773ZM24.4365 0.255859C17.9209 0.255859 17.1053 0.283984 14.5459 0.396484C11.9959 0.508984 10.2428 0.921484 8.72402 1.51211C7.13965 2.13086 5.79902 2.94648 4.46777 4.28711C3.12715 5.61836 2.31152 6.95899 1.69277 8.53399C1.10215 10.0621 0.689648 11.8059 0.577148 14.3559C0.464648 16.9246 0.436523 17.7402 0.436523 24.2559C0.436523 30.7715 0.464648 31.5871 0.577148 34.1465C0.689648 36.6965 1.10215 38.4496 1.69277 39.9684C2.31152 41.5527 3.12715 42.8934 4.46777 44.2246C5.79902 45.5559 7.13965 46.3809 8.71465 46.9902C10.2428 47.5809 11.9865 47.9934 14.5365 48.1059C17.0959 48.2184 17.9115 48.2465 24.4271 48.2465C30.9428 48.2465 31.7584 48.2184 34.3178 48.1059C36.8678 47.9934 38.6209 47.5809 40.1397 46.9902C41.7147 46.3809 43.0553 45.5559 44.3865 44.2246C45.7178 42.8934 46.5428 41.5527 47.1521 39.9777C47.7428 38.4496 48.1553 36.7059 48.2678 34.1559C48.3803 31.5965 48.4084 30.7809 48.4084 24.2652C48.4084 17.7496 48.3803 16.934 48.2678 14.3746C48.1553 11.8246 47.7428 10.0715 47.1521 8.55273C46.5615 6.95898 45.7459 5.61836 44.4053 4.28711C43.074 2.95586 41.7334 2.13086 40.1584 1.52148C38.6303 0.930859 36.8865 0.518359 34.3365 0.405859C31.7678 0.283984 30.9522 0.255859 24.4365 0.255859Z" fill="white"/>
<path d="M24.4365 11.9277C17.6303 11.9277 12.1084 17.4496 12.1084 24.2559C12.1084 31.0621 17.6303 36.584 24.4365 36.584C31.2428 36.584 36.7646 31.0621 36.7646 24.2559C36.7646 17.4496 31.2428 11.9277 24.4365 11.9277ZM24.4365 32.2527C20.0209 32.2527 16.4396 28.6715 16.4396 24.2559C16.4396 19.8402 20.0209 16.259 24.4365 16.259C28.8521 16.259 32.4334 19.8402 32.4334 24.2559C32.4334 28.6715 28.8521 32.2527 24.4365 32.2527Z" fill="white"/>
<path d="M40.1303 11.4404C40.1303 13.0341 38.8365 14.3185 37.2521 14.3185C35.6584 14.3185 34.374 13.0248 34.374 11.4404C34.374 9.84663 35.6678 8.56226 37.2521 8.56226C38.8365 8.56226 40.1303 9.85601 40.1303 11.4404Z" fill="white"/>
</g>
<defs>
<clipPath id="clip0_161_138">
<rect width="48" height="48" fill="white" transform="translate(0.436523 0.255859)"/>
</clipPath>
</defs>
</svg>
