<svg width="49" height="49" viewBox="0 0 49 49" fill="none" xmlns="http://www.w3.org/2000/svg">
<path d="M0.735352 48.2559L4.10935 35.9299C2.02735 32.3219 0.933352 28.2319 0.935352 24.0379C0.941352 10.9259 11.6114 0.255859 24.7214 0.255859C31.0834 0.257859 37.0554 2.73586 41.5474 7.23186C46.0374 11.7279 48.5094 17.7039 48.5074 24.0599C48.5014 37.1739 37.8314 47.8439 24.7214 47.8439C20.7414 47.8419 16.8194 46.8439 13.3454 44.9479L0.735352 48.2559ZM13.9294 40.6419C17.2814 42.6319 20.4813 43.8239 24.7134 43.8259C35.6094 43.8259 44.4854 34.9579 44.4914 24.0559C44.4954 13.1319 35.6614 4.27586 24.7294 4.27186C13.8254 4.27186 4.95535 13.1399 4.95135 24.0399C4.94935 28.4899 6.25335 31.8219 8.44335 35.3079L6.44535 42.6039L13.9294 40.6419ZM36.7034 29.7139C36.5554 29.4659 36.1594 29.3179 35.5634 29.0199C34.9694 28.7219 32.0473 27.2839 31.5014 27.0859C30.9573 26.8879 30.5614 26.7879 30.1634 27.3839C29.7674 27.9779 28.6274 29.3179 28.2814 29.7139C27.9354 30.1099 27.5874 30.1599 26.9934 29.8619C26.3994 29.5639 24.4834 28.9379 22.2134 26.9119C20.4473 25.3359 19.2534 23.3899 18.9074 22.7939C18.5613 22.1999 18.8714 21.8779 19.1674 21.5819C19.4354 21.3159 19.7614 20.8879 20.0594 20.5399C20.3614 20.1959 20.4594 19.9479 20.6594 19.5499C20.8574 19.1539 20.7594 18.8059 20.6094 18.5079C20.4594 18.2119 19.2714 15.2859 18.7774 14.0959C18.2934 12.9379 17.8034 13.0939 17.4394 13.0759L16.2994 13.0559C15.9034 13.0559 15.2594 13.2039 14.7154 13.7999C14.1714 14.3959 12.6354 15.8319 12.6354 18.7579C12.6354 21.6839 14.7654 24.5099 15.0614 24.9059C15.3594 25.3019 19.2514 31.3059 25.2134 33.8799C26.6313 34.4919 27.7394 34.8579 28.6014 35.1319C30.0254 35.5839 31.3214 35.5199 32.3454 35.3679C33.4874 35.1979 35.8614 33.9299 36.3574 32.5419C36.8534 31.1519 36.8534 29.9619 36.7034 29.7139Z" fill="white"/>
</svg>
