<svg width="49" height="48" viewBox="0 0 49 48" fill="none" xmlns="http://www.w3.org/2000/svg">
<path fill-rule="evenodd" clip-rule="evenodd" d="M24.889 0.255859C11.6066 0.255859 0.869141 11.0725 0.869141 24.4542C0.869141 35.1509 7.74902 44.2054 17.2932 47.4101C18.4865 47.651 18.9236 46.8894 18.9236 46.2488C18.9236 45.6878 18.8843 43.7649 18.8843 41.7613C12.2025 43.2039 10.8111 38.8767 10.8111 38.8767C9.73732 36.0723 8.14629 35.3515 8.14629 35.3515C5.95936 33.8691 8.30559 33.8691 8.30559 33.8691C10.7315 34.0294 12.0044 36.353 12.0044 36.353C14.1515 40.0385 17.6114 38.9972 19.0033 38.356C19.2019 36.7935 19.8386 35.7119 20.5146 35.1111C15.1855 34.5501 9.57852 32.4669 9.57852 23.1719C9.57852 20.5277 10.5323 18.3644 12.0437 16.6819C11.8053 16.0811 10.9699 13.5967 12.2827 10.2716C12.2827 10.2716 14.3108 9.63046 18.8838 12.7555C20.8416 12.2258 22.8608 11.9563 24.889 11.9541C26.9171 11.9541 28.9846 12.2348 30.8937 12.7555C35.4672 9.63046 37.4953 10.2716 37.4953 10.2716C38.8081 13.5967 37.9722 16.0811 37.7338 16.6819C39.285 18.3644 40.1995 20.5277 40.1995 23.1719C40.1995 32.4669 34.5925 34.5097 29.2235 35.1111C30.0987 35.8722 30.8539 37.3142 30.8539 39.598C30.8539 42.843 30.8146 45.4474 30.8146 46.2483C30.8146 46.8894 31.2521 47.651 32.4449 47.4106C41.9892 44.2049 48.869 35.1509 48.869 24.4542C48.9084 11.0725 38.1315 0.255859 24.889 0.255859Z" fill="white"/>
</svg>
