<svg width="235" height="136" viewBox="0 0 235 136" fill="none" xmlns="http://www.w3.org/2000/svg">
<path d="M160.789 97.9016C160.789 95.6497 161.287 93.6552 162.285 91.9181C163.314 90.181 164.697 88.8138 166.435 87.8165C168.172 86.8193 170.118 86.3206 172.273 86.3206C174.461 86.3206 176.407 86.8193 178.112 87.8165C179.849 88.8138 181.216 90.181 182.214 91.9181C183.243 93.6552 183.758 95.6497 183.758 97.9016C183.758 100.121 183.243 102.116 182.214 103.885C181.216 105.622 179.849 106.989 178.112 107.987C176.407 108.984 174.461 109.483 172.273 109.483C170.118 109.483 168.172 108.984 166.435 107.987C164.697 106.989 163.314 105.622 162.285 103.885C161.287 102.116 160.789 100.121 160.789 97.9016ZM164.697 97.9016C164.697 99.4457 165.019 100.813 165.662 102.003C166.338 103.193 167.239 104.142 168.365 104.85C169.523 105.526 170.826 105.863 172.273 105.863C173.721 105.863 175.008 105.526 176.134 104.85C177.292 104.142 178.192 103.193 178.836 102.003C179.511 100.813 179.849 99.4457 179.849 97.9016C179.849 96.3575 179.511 94.9903 178.836 93.8C178.192 92.5776 177.292 91.6286 176.134 90.953C175.008 90.2775 173.721 89.9397 172.273 89.9397C170.826 89.9397 169.523 90.2775 168.365 90.953C167.239 91.6286 166.338 92.5776 165.662 93.8C165.019 94.9903 164.697 96.3575 164.697 97.9016ZM204.261 71.3619H208.121V109H204.261V71.3619ZM185.683 97.9016C185.683 95.4889 186.182 93.4301 187.179 91.7251C188.176 89.9879 189.511 88.6529 191.184 87.72C192.857 86.7871 194.69 86.3206 196.685 86.3206C198.551 86.3206 200.175 86.7871 201.558 87.72C202.942 88.6529 204.019 89.9879 204.792 91.7251C205.596 93.4301 205.998 95.4889 205.998 97.9016C205.998 100.282 205.596 102.341 204.792 104.078C204.019 105.815 202.942 107.15 201.558 108.083C200.175 109.016 198.551 109.483 196.685 109.483C194.69 109.483 192.857 109.016 191.184 108.083C189.511 107.15 188.176 105.815 187.179 104.078C186.182 102.341 185.683 100.282 185.683 97.9016ZM189.592 97.9016C189.592 99.6066 189.929 101.054 190.605 102.244C191.313 103.435 192.245 104.335 193.404 104.947C194.562 105.558 195.816 105.863 197.167 105.863C198.293 105.863 199.403 105.558 200.497 104.947C201.591 104.335 202.491 103.435 203.199 102.244C203.907 101.054 204.261 99.6066 204.261 97.9016C204.261 96.1966 203.907 94.749 203.199 93.5587C202.491 92.3685 201.591 91.4677 200.497 90.8565C199.403 90.2453 198.293 89.9397 197.167 89.9397C195.816 89.9397 194.562 90.2453 193.404 90.8565C192.245 91.4677 191.313 92.3685 190.605 93.5587C189.929 94.749 189.592 96.1966 189.592 97.9016ZM222.275 109.483C220.216 109.483 218.382 109 216.774 108.035C215.197 107.038 213.959 105.67 213.058 103.933C212.189 102.196 211.755 100.186 211.755 97.9016C211.755 95.5854 212.206 93.5587 213.106 91.8216C214.039 90.0844 215.326 88.7333 216.967 87.7683C218.639 86.8032 220.57 86.3206 222.757 86.3206C224.945 86.3206 226.81 86.7871 228.355 87.72C229.931 88.6207 231.137 89.9236 231.974 91.6286C232.81 93.3335 233.228 95.3602 233.228 97.7086C233.228 97.9338 233.212 98.175 233.18 98.4324C233.18 98.6576 233.18 98.8023 233.18 98.8667H214.216V95.5854H230.14L228.596 97.8051C228.692 97.6442 228.789 97.403 228.885 97.0813C228.982 96.7274 229.03 96.4379 229.03 96.2127C229.03 94.8938 228.757 93.7517 228.21 92.7867C227.695 91.8216 226.971 91.0656 226.038 90.5187C225.105 89.9719 224.012 89.6984 222.757 89.6984C221.277 89.6984 220.007 90.0201 218.945 90.6635C217.916 91.2747 217.111 92.1754 216.532 93.3657C215.985 94.5238 215.696 95.9553 215.664 97.6603C215.664 99.3975 215.937 100.877 216.484 102.1C217.031 103.322 217.835 104.255 218.897 104.898C219.958 105.542 221.245 105.863 222.757 105.863C224.269 105.863 225.604 105.542 226.762 104.898C227.92 104.223 228.901 103.21 229.706 101.858L232.842 103.837C231.684 105.703 230.22 107.118 228.451 108.083C226.714 109.016 224.655 109.483 222.275 109.483Z" fill="url(#paint0_linear_20_423)"/>
<path d="M28.1418 109.633C21.155 109.633 15.7108 107.773 11.8091 104.053C7.90737 100.287 5.95652 95.5236 5.95652 89.7618C5.95652 86.1323 6.65973 83.138 8.06616 80.7788C9.47258 78.3743 11.2646 76.4461 13.4423 74.9944C15.6654 73.5426 17.9792 72.3857 20.3837 71.5237C23.3327 70.4802 26.3043 69.6635 29.2987 69.0738C32.3384 68.484 35.1285 67.8488 37.6692 67.1683C40.2552 66.4424 42.3194 65.4216 43.862 64.1059C45.4499 62.7448 46.2438 60.8167 46.2438 58.3214V56.4159C46.2438 51.5615 44.792 47.6825 41.8884 44.7789C39.0302 41.8299 35.2193 40.3554 30.4556 40.3554C25.6919 40.3554 21.9036 41.8299 19.0907 44.7789C16.3232 47.6825 14.9395 51.5615 14.9395 56.4159V57.777H7.45368V56.4159C7.45368 49.3838 9.58601 43.7127 13.8507 39.4027C18.1153 35.0473 23.6503 32.8696 30.4556 32.8696C34.9924 32.8696 39.0075 33.8677 42.5009 35.8639C45.9943 37.8148 48.7391 40.5596 50.7353 44.0983C52.7315 47.6371 53.7296 51.7429 53.7296 56.4159V108H46.2438V98.3365L47.4688 99.9698C45.654 103.009 43.1134 105.391 39.8469 107.115C36.6257 108.794 32.724 109.633 28.1418 109.633ZM29.0264 102.284C34.5614 102.284 38.8034 100.741 41.7523 97.656C44.7467 94.5709 46.2438 90.2609 46.2438 84.7259V70.8431C42.9773 72.794 39.3478 74.087 35.3554 74.7221C31.4083 75.3119 27.6881 76.1513 24.1947 77.2401C21.155 78.1928 18.5917 79.5993 16.5047 81.4594C14.4631 83.2741 13.4423 85.9509 13.4423 89.4896C13.4423 93.3006 14.8034 96.3856 17.5255 98.7448C20.2476 101.104 24.0813 102.284 29.0264 102.284ZM84.0791 109.633C80.1774 109.633 76.7974 108.839 73.9392 107.251C71.081 105.664 68.7899 103.463 67.0659 100.65L68.2908 99.017V108H60.805V5.92067H68.2908V43.4859L67.0659 41.8526C68.7899 39.0397 71.081 36.8394 73.9392 35.2515C76.7974 33.6636 80.1774 32.8696 84.0791 32.8696C88.5252 32.8696 92.4496 33.8677 95.8522 35.8639C99.2549 37.8148 101.932 40.5596 103.882 44.0983C105.833 47.6371 106.809 51.7429 106.809 56.4159V85.9509C106.809 90.6692 105.833 94.8204 103.882 98.4045C101.932 101.943 99.2549 104.711 95.8522 106.707C92.4496 108.658 88.5252 109.633 84.0791 109.633ZM83.6027 102.147C88.5025 102.147 92.3362 100.65 95.1037 97.656C97.9165 94.6616 99.3229 90.7599 99.3229 85.9509V56.4159C99.3229 51.5615 97.9165 47.6825 95.1037 44.7789C92.3362 41.8299 88.5252 40.3554 83.6708 40.3554C78.8163 40.3554 75.0281 41.8299 72.3059 44.7789C69.6292 47.6825 68.2908 51.5615 68.2908 56.4159V86.087C68.2908 90.896 69.6292 94.7751 72.3059 97.724C75.0281 100.673 78.7937 102.147 83.6027 102.147ZM133.983 109.633C129.446 109.633 125.431 108.658 121.938 106.707C118.444 104.711 115.7 101.943 113.703 98.4045C111.707 94.8204 110.709 90.6692 110.709 85.9509V56.4159C110.709 51.7429 111.707 47.6371 113.703 44.0983C115.7 40.5596 118.444 37.8148 121.938 35.8639C125.431 33.8677 129.446 32.8696 133.983 32.8696C140.788 32.8696 146.323 35.0473 150.588 39.4027C154.853 43.7127 156.985 49.3838 156.985 56.4159V57.777H149.499V56.4159C149.499 51.5615 148.093 47.6825 145.28 44.7789C142.512 41.8299 138.747 40.3554 133.983 40.3554C129.219 40.3554 125.386 41.8299 122.482 44.7789C119.624 47.6825 118.195 51.5615 118.195 56.4159V85.9509C118.195 90.7599 119.624 94.6616 122.482 97.656C125.386 100.65 129.219 102.147 133.983 102.147C138.747 102.147 142.512 100.65 145.28 97.656C148.093 94.6616 149.499 90.7599 149.499 85.9509V84.5898H156.985V85.9509C156.985 93.0284 154.853 98.7448 150.588 103.1C146.323 107.456 140.788 109.633 133.983 109.633Z" fill="url(#paint1_linear_20_423)"/>
<defs>
<linearGradient id="paint0_linear_20_423" x1="197" y1="68" x2="197" y2="116" gradientUnits="userSpaceOnUse">
<stop stop-color="#2E29FF"/>
<stop offset="1" stop-color="#7673FF"/>
</linearGradient>
<linearGradient id="paint1_linear_20_423" x1="81.5" y1="0" x2="81.5" y2="136" gradientUnits="userSpaceOnUse">
<stop stop-color="#2E29FF"/>
<stop offset="1" stop-color="#7673FF"/>
</linearGradient>
</defs>
</svg>
